<svg width="32" height="34" viewBox="0 0 32 34" fill="none" xmlns="http://www.w3.org/2000/svg">
<g clip-path="url(#clip0_6_57)">
<path d="M31.2358 16.7839C31.2358 15.4845 31.132 14.5362 30.9076 13.5529H16.3097V19.4179H24.8783C24.7057 20.8753 23.7728 23.0705 21.6996 24.5455L21.6707 24.7418L26.2861 28.3763L26.6059 28.4086C29.5427 25.6518 31.2358 21.5954 31.2358 16.7839Z" fill="#4285F4"/>
<path d="M16.3098 32.2367C20.5078 32.2367 24.032 30.8319 26.6061 28.4086L21.6998 24.5453C20.3869 25.476 18.6247 26.1257 16.3098 26.1257C12.1982 26.1257 8.70861 23.3689 7.46464 19.5583L7.2823 19.5741L2.48296 23.3495L2.4202 23.5268C4.97695 28.6895 10.2288 32.2367 16.3098 32.2367Z" fill="#34A853"/>
<path d="M7.46476 19.5585C7.13653 18.5751 6.94657 17.5215 6.94657 16.4328C6.94657 15.344 7.13653 14.2904 7.4475 13.307L7.4388 13.0976L2.57931 9.26154L2.42032 9.33842C1.36655 11.4808 0.761902 13.8866 0.761902 16.4328C0.761902 18.979 1.36655 21.3847 2.42032 23.5271L7.46476 19.5585Z" fill="#FBBC05"/>
<path d="M16.3098 6.73949C19.2293 6.73949 21.1987 8.02136 22.3217 9.09261L26.7097 4.73768C24.0147 2.19146 20.5078 0.628601 16.3098 0.628601C10.2288 0.628601 4.97695 4.17572 2.4202 9.33836L7.44737 13.307C8.70861 9.49647 12.1982 6.73949 16.3098 6.73949Z" fill="#EB4335"/>
</g>
<defs>
<clipPath id="clip0_6_57">
<rect width="30.4762" height="32.9143" fill="white" transform="translate(0.761902 0.628601)"/>
</clipPath>
</defs>
</svg>
